<svg width="88" height="18" viewBox="0 0 88 18" fill="none" xmlns="http://www.w3.org/2000/svg">
<path d="M0 5C0 2.23858 2.23858 0 5 0H83C85.7614 0 88 2.23858 88 5V13C88 15.7614 85.7614 18 83 18H5C2.23858 18 0 15.7614 0 13V5Z" fill="#F3E500"/>
<path d="M14.8886 5.5H13.3144L10.9531 9.18182L13.3144 12.8636H14.8886L12.5273 9.18182L14.8886 5.5Z" fill="#0C061A"/>
<path d="M17.498 5.5H15.9238L13.5625 9.18182L15.9238 12.8636H17.498L15.1367 9.18182L17.498 5.5Z" fill="#0C061A"/>
<rect x="8.5" y="5.5" width="1.63636" height="7.36364" fill="#0C061A"/>
<path d="M28.704 13H29.916L27.576 7.9L29.904 4.96H28.656L25.944 8.464V4.96H24.912V13H25.944V9.88L26.82 8.8L28.704 13ZM32.0732 11.992V9.46H34.2212V8.452H32.0732V5.968H34.8692V4.96H31.0292V13H34.9172V11.992H32.0732ZM43.3461 4.96V11.968H40.8861V4.96H39.8421V11.968H37.3821V4.96H36.3261V13H44.3901V4.96H43.3461ZM48.3644 8.164H47.2724V5.968H50.4524V4.96H46.2284V13H48.3644C49.8284 13 50.9084 12.136 50.9084 10.66V10.516C50.9084 9.028 49.8284 8.164 48.3644 8.164ZM49.8284 10.792C49.8284 11.512 49.2524 12.028 48.3884 12.028H47.2724V9.136H48.3884C49.2524 9.136 49.8284 9.652 49.8284 10.384V10.792ZM54.2109 4.84C52.8549 4.84 51.8469 5.74 51.8469 7.3V7.96H52.8669V7.324C52.8669 6.448 53.4309 5.872 54.2469 5.872C55.0749 5.872 55.6389 6.472 55.6389 7.384V8.236H53.4669V9.268H55.6389V10.576C55.6389 11.488 55.0749 12.088 54.2469 12.088C53.4309 12.088 52.8669 11.512 52.8669 10.636V10H51.8469V10.66C51.8469 12.22 52.8549 13.12 54.2109 13.12C55.6149 13.12 56.6709 12.124 56.6709 10.42V7.54C56.6709 5.836 55.6149 4.84 54.2109 4.84ZM62.1024 13H63.3144L60.9744 7.9L63.3024 4.96H62.0544L59.3424 8.464V4.96H58.3104V13H59.3424V9.88L60.2184 8.8L62.1024 13ZM69.35 7.528C68.762 7.528 68.306 7.756 68.006 8.08L68.066 6.556H71.174V4.96H66.506L66.314 9.52H67.994C68.126 9.22 68.354 8.956 68.738 8.956C69.386 8.956 69.542 9.376 69.542 9.856V10.72C69.542 11.188 69.254 11.476 68.798 11.476C68.342 11.476 68.066 11.188 68.066 10.72V10.456H66.254V10.624C66.254 12.304 67.238 13.12 68.786 13.12C70.358 13.12 71.366 12.136 71.366 10.612V9.856C71.366 8.332 70.586 7.528 69.35 7.528ZM73.6516 7.888C74.6236 7.888 75.3796 7.144 75.3796 6.184C75.3796 5.212 74.6236 4.468 73.6516 4.468C72.6796 4.468 71.9236 5.212 71.9236 6.184C71.9236 7.144 72.6796 7.888 73.6516 7.888ZM72.0796 13H73.2436L78.4876 4.588H77.3356L72.0796 13ZM73.6516 6.868C73.2796 6.868 73.0036 6.58 73.0036 6.184C73.0036 5.788 73.2796 5.488 73.6516 5.488C74.0236 5.488 74.3116 5.788 74.3116 6.184C74.3116 6.58 74.0236 6.868 73.6516 6.868ZM76.9156 13.12C77.8876 13.12 78.6436 12.376 78.6436 11.416C78.6436 10.444 77.8876 9.7 76.9156 9.7C75.9436 9.7 75.1876 10.444 75.1876 11.416C75.1876 12.376 75.9436 13.12 76.9156 13.12ZM76.9156 12.1C76.5436 12.1 76.2676 11.812 76.2676 11.416C76.2676 11.02 76.5436 10.72 76.9156 10.72C77.2876 10.72 77.5756 11.02 77.5756 11.416C77.5756 11.812 77.2876 12.1 76.9156 12.1Z" fill="#0C061A"/>
</svg>
