<svg width="145" height="18" viewBox="0 0 145 18" fill="none" xmlns="http://www.w3.org/2000/svg">
<path d="M0.170654 5C0.170654 2.23858 2.40923 0 5.17065 0H139.171C141.932 0 144.171 2.23858 144.171 5V13C144.171 15.7614 141.932 18 139.171 18H5.17065C2.40923 18 0.170654 15.7614 0.170654 13V5Z" fill="#E01E1E"/>
<path d="M9.17065 4.84C7.81465 4.84 6.80665 5.74 6.80665 7.3V7.96H7.82665V7.324C7.82665 6.448 8.39065 5.872 9.20665 5.872C10.0347 5.872 10.5987 6.472 10.5987 7.384V8.236H8.42665V9.268H10.5987V10.576C10.5987 11.488 10.0347 12.088 9.20665 12.088C8.39065 12.088 7.82665 11.512 7.82665 10.636V10H6.80665V10.66C6.80665 12.22 7.81465 13.12 9.17065 13.12C10.5747 13.12 11.6307 12.124 11.6307 10.42V7.54C11.6307 5.836 10.5747 4.84 9.17065 4.84ZM17.0622 13H18.2742L15.9342 7.9L18.2622 4.96H17.0142L14.3022 8.464V4.96H13.2702V13H14.3022V9.88L15.1782 8.8L17.0622 13ZM21.2572 13.12C22.6132 13.12 23.6212 12.22 23.6212 10.66V10H22.6012V10.648C22.6012 11.524 22.0492 12.088 21.2332 12.088C20.4172 12.088 19.8652 11.488 19.8652 10.576V7.384C19.8652 6.472 20.4172 5.872 21.2332 5.872C22.0492 5.872 22.6012 6.436 22.6012 7.312V7.96H23.6212V7.3C23.6212 5.74 22.6132 4.84 21.2572 4.84C19.8532 4.84 18.7972 5.836 18.7972 7.54V10.42C18.7972 12.124 19.8532 13.12 21.2572 13.12ZM29.027 13H30.239L27.899 7.9L30.227 4.96H28.979L26.267 8.464V4.96H25.235V13H26.267V9.88L27.143 8.8L29.027 13ZM35.8762 4.96H31.4962V8.08C31.4962 11.572 31.4722 12.016 30.9322 12.016H30.5482V13C30.7162 13.024 30.8482 13.048 31.1242 13.048C32.5522 13.048 32.5282 11.488 32.5282 8.992V5.992H34.8202V13H35.8762V4.96ZM42.8757 4.84H42.4677C41.1717 4.84 40.3077 5.764 40.3077 7.348V8.44H38.7597V4.96H37.7037V13H38.7597V9.472H40.3077V10.612C40.3077 12.196 41.1717 13.12 42.4677 13.12H42.8757C44.1717 13.12 45.1317 12.196 45.1317 10.612V7.348C45.1317 5.764 44.1717 4.84 42.8757 4.84ZM44.0637 10.78C44.0637 11.56 43.5957 12.088 42.8997 12.088H42.4917C41.8077 12.088 41.3277 11.56 41.3277 10.78V7.18C41.3277 6.4 41.8077 5.872 42.4917 5.872H42.8997C43.5957 5.872 44.0637 6.4 44.0637 7.18V10.78ZM49.9066 8.92C50.5906 8.524 50.9146 7.924 50.9146 7.096V7.012C50.9146 5.728 49.9786 4.852 48.5986 4.852C47.1946 4.852 46.2346 5.836 46.2346 7.252V7.936H47.2666V7.276C47.2666 6.364 47.7346 5.848 48.5506 5.848C49.3306 5.848 49.8586 6.316 49.8586 7.06V7.156C49.8586 7.948 49.4626 8.476 48.7186 8.476H48.1426V9.436H48.7186C49.5226 9.436 49.9306 9.94 49.9306 10.732V10.804C49.9306 11.62 49.4506 12.112 48.6106 12.112C47.7586 12.112 47.2186 11.572 47.2186 10.696V10.072H46.2106V10.768C46.2106 12.16 47.1706 13.12 48.5866 13.12C50.0266 13.12 50.9986 12.208 50.9986 10.816V10.708C50.9986 9.928 50.5426 9.232 49.9066 8.92ZM52.3991 13H53.3711L56.3351 7.144L56.2871 10.348V13H57.3431V4.96H56.3831L53.4191 10.816L53.4671 7.612V4.96H52.3991V13ZM62.8322 8.92C63.5162 8.536 63.8642 7.96 63.8642 7.228V7.084C63.8642 5.74 62.8082 4.96 61.3562 4.96H59.1842V13H61.4762C62.9282 13 63.9962 12.184 63.9962 10.792V10.648C63.9962 9.796 63.5642 9.268 62.8322 8.92ZM60.2042 5.932H61.3562C62.2442 5.932 62.8202 6.412 62.8202 7.084V7.336C62.8202 8.02 62.2442 8.488 61.3562 8.488H60.2042V5.932ZM62.9402 10.888C62.9402 11.56 62.3642 12.064 61.4762 12.064H60.2042V9.424H61.4762C62.3642 9.424 62.9402 9.928 62.9402 10.6V10.888ZM69.3772 4.96V8.44H66.5332V4.96H65.4772V13H66.5332V9.472H69.3772V13H70.4212V4.96H69.3772ZM74.6143 13.12C76.0783 13.12 77.1463 12.124 77.1463 10.432V7.528C77.1463 5.836 76.0783 4.84 74.6143 4.84C73.1623 4.84 72.0823 5.836 72.0823 7.528V10.432C72.0823 12.124 73.1623 13.12 74.6143 13.12ZM74.6143 12.088C73.7383 12.088 73.1503 11.5 73.1503 10.588V7.372C73.1503 6.46 73.7383 5.872 74.6143 5.872C75.5023 5.872 76.0903 6.46 76.0903 7.372V10.588C76.0903 11.5 75.5023 12.088 74.6143 12.088ZM84.8517 8.92C85.5357 8.536 85.8837 7.96 85.8837 7.228V7.084C85.8837 5.74 84.8277 4.96 83.3757 4.96H81.2037V13H83.4957C84.9477 13 86.0157 12.184 86.0157 10.792V10.648C86.0157 9.796 85.5837 9.268 84.8517 8.92ZM82.2237 5.932H83.3757C84.2637 5.932 84.8397 6.412 84.8397 7.084V7.336C84.8397 8.02 84.2637 8.488 83.3757 8.488H82.2237V5.932ZM84.9597 10.888C84.9597 11.56 84.3837 12.064 83.4957 12.064H82.2237V9.424H83.4957C84.3837 9.424 84.9597 9.928 84.9597 10.6V10.888ZM94.3031 5.692H93.7271V4.84H92.6711V5.692H92.0951C90.6671 5.692 89.6231 6.616 89.6231 8.2V9.76C89.6231 11.344 90.6671 12.268 92.0951 12.268H92.6711V13.12H93.7271V12.268H94.3031C95.7311 12.268 96.7751 11.344 96.7751 9.76V8.2C96.7751 6.616 95.7311 5.692 94.3031 5.692ZM92.0951 11.284C91.2431 11.284 90.6791 10.684 90.6791 9.832V8.128C90.6791 7.276 91.2431 6.676 92.0951 6.676H92.6711V11.284H92.0951ZM95.7191 9.832C95.7191 10.684 95.1551 11.284 94.3031 11.284H93.7271V6.676H94.3031C95.1551 6.676 95.7191 7.276 95.7191 8.128V9.832ZM100.677 13.12C102.141 13.12 103.209 12.124 103.209 10.432V7.528C103.209 5.836 102.141 4.84 100.677 4.84C99.2248 4.84 98.1448 5.836 98.1448 7.528V10.432C98.1448 12.124 99.2248 13.12 100.677 13.12ZM100.677 12.088C99.8008 12.088 99.2128 11.5 99.2128 10.588V7.372C99.2128 6.46 99.8008 5.872 100.677 5.872C101.565 5.872 102.153 6.46 102.153 7.372V10.588C102.153 11.5 101.565 12.088 100.677 12.088ZM108.656 13H109.868L107.528 7.9L109.856 4.96H108.608L105.896 8.464V4.96H104.864V13H105.896V9.88L106.772 8.8L108.656 13ZM112.851 13.12C114.207 13.12 115.215 12.22 115.215 10.66V10H114.195V10.648C114.195 11.524 113.643 12.088 112.827 12.088C112.011 12.088 111.459 11.488 111.459 10.576V7.384C111.459 6.472 112.011 5.872 112.827 5.872C113.643 5.872 114.195 6.436 114.195 7.312V7.96H115.215V7.3C115.215 5.74 114.207 4.84 112.851 4.84C111.447 4.84 110.391 5.836 110.391 7.54V10.42C110.391 12.124 111.447 13.12 112.851 13.12ZM120.762 4.96H115.722V5.992H117.714V13H118.77V5.992H120.762V4.96ZM124.004 4.96H121.856V13H122.912V9.796H124.004C125.468 9.796 126.548 8.932 126.548 7.456V7.3C126.548 5.824 125.468 4.96 124.004 4.96ZM125.468 7.588C125.468 8.32 124.892 8.836 124.028 8.836H122.912V5.932H124.028C124.892 5.932 125.468 6.448 125.468 7.168V7.588ZM130.114 13.12C131.578 13.12 132.646 12.124 132.646 10.432V7.528C132.646 5.836 131.578 4.84 130.114 4.84C128.662 4.84 127.582 5.836 127.582 7.528V10.432C127.582 12.124 128.662 13.12 130.114 13.12ZM130.114 12.088C129.238 12.088 128.65 11.5 128.65 10.588V7.372C128.65 6.46 129.238 5.872 130.114 5.872C131.002 5.872 131.59 6.46 131.59 7.372V10.588C131.59 11.5 131.002 12.088 130.114 12.088ZM138.305 4.96H133.265V5.992H135.257V13H136.313V5.992H138.305V4.96Z" fill="white"/>
</svg>
