<svg width="51" height="18" viewBox="0 0 51 18" fill="none" xmlns="http://www.w3.org/2000/svg">
<path d="M0.170654 5C0.170654 2.23858 2.40923 0 5.17065 0H45.1707C47.9321 0 50.1707 2.23858 50.1707 5V13C50.1707 15.7614 47.9321 18 45.1707 18H5.17066C2.40923 18 0.170654 15.7614 0.170654 13V5Z" fill="#BB6BD9"/>
<path d="M9.36265 13.12C10.7187 13.12 11.7267 12.22 11.7267 10.66V10H10.7067V10.648C10.7067 11.524 10.1547 12.088 9.33865 12.088C8.52265 12.088 7.97065 11.488 7.97065 10.576V7.384C7.97065 6.472 8.52265 5.872 9.33865 5.872C10.1547 5.872 10.7067 6.436 10.7067 7.312V7.96H11.7267V7.3C11.7267 5.74 10.7187 4.84 9.36265 4.84C7.95865 4.84 6.90265 5.836 6.90265 7.54V10.42C6.90265 12.124 7.95865 13.12 9.36265 13.12ZM17.1325 13H18.3445L16.0045 7.9L18.3325 4.96H17.0845L14.3725 8.464V4.96H13.3405V13H14.3725V9.88L15.2485 8.8L17.1325 13ZM19.4577 13H20.4297L23.3937 7.144L23.3457 10.348V13H24.4017V4.96H23.4417L20.4777 10.816L20.5257 7.612V4.96H19.4577V13ZM30.7188 11.968V4.96H26.3028V8.596C26.3028 10.144 26.2308 11.212 26.1108 11.968H25.5828V14.32H26.5788V13H30.4068V14.32H31.4148V11.968H30.7188ZM27.1068 11.992C27.2148 11.104 27.3228 9.832 27.3228 8.008V5.968H29.6748V11.992H27.1068ZM36.4215 13H37.6335L35.2935 7.9L37.6215 4.96H36.3735L33.6615 8.464V4.96H32.6295V13H33.6615V9.88L34.5375 8.8L36.4215 13ZM42.3227 13H43.3907L41.6387 4.96H39.9107L38.1467 13H39.1907L39.5507 11.164H41.9507L42.3227 13ZM39.7427 10.192L40.5707 5.968H40.9187L41.7587 10.192H39.7427Z" fill="white"/>
</svg>
