<svg width="75" height="18" viewBox="0 0 75 18" fill="none" xmlns="http://www.w3.org/2000/svg">
<path d="M0.170654 5C0.170654 2.23858 2.40923 0 5.17065 0H69.1707C71.9321 0 74.1707 2.23858 74.1707 5V13C74.1707 15.7614 71.9321 18 69.1707 18H5.17066C2.40923 18 0.170654 15.7614 0.170654 13V5Z" fill="#EB5757"/>
<path d="M11.3907 4.96H6.35065V5.992H8.34265V13H9.39865V5.992H11.3907V4.96ZM14.5323 13.12C15.9963 13.12 17.0643 12.124 17.0643 10.432V7.528C17.0643 5.836 15.9963 4.84 14.5323 4.84C13.0803 4.84 12.0003 5.836 12.0003 7.528V10.432C12.0003 12.124 13.0803 13.12 14.5323 13.12ZM14.5323 12.088C13.6563 12.088 13.0683 11.5 13.0683 10.588V7.372C13.0683 6.46 13.6563 5.872 14.5323 5.872C15.4203 5.872 16.0083 6.46 16.0083 7.372V10.588C16.0083 11.5 15.4203 12.088 14.5323 12.088ZM23.6634 4.96H18.7194V13H19.7754V5.992H22.6194V13H23.6634V4.96ZM32.8509 4.96H27.9069V13H28.9629V5.992H31.8069V13H32.8509V4.96ZM36.84 4.96H34.692V13H35.748V9.796H36.84C38.304 9.796 39.384 8.932 39.384 7.456V7.3C39.384 5.824 38.304 4.96 36.84 4.96ZM38.304 7.588C38.304 8.32 37.728 8.836 36.864 8.836H35.748V5.932H36.864C37.728 5.932 38.304 6.448 38.304 7.168V7.588ZM42.9503 13.12C44.4143 13.12 45.4823 12.124 45.4823 10.432V7.528C45.4823 5.836 44.4143 4.84 42.9503 4.84C41.4983 4.84 40.4183 5.836 40.4183 7.528V10.432C40.4183 12.124 41.4983 13.12 42.9503 13.12ZM42.9503 12.088C42.0743 12.088 41.4863 11.5 41.4863 10.588V7.372C41.4863 6.46 42.0743 5.872 42.9503 5.872C43.8383 5.872 44.4263 6.46 44.4263 7.372V10.588C44.4263 11.5 43.8383 12.088 42.9503 12.088ZM51.379 11.968V4.96H46.963V8.596C46.963 10.144 46.891 11.212 46.771 11.968H46.243V14.32H47.239V13H51.067V14.32H52.075V11.968H51.379ZM47.767 11.992C47.875 11.104 47.983 9.832 47.983 8.008V5.968H50.335V11.992H47.767ZM56.8657 13H57.9337L56.1817 4.96H54.4537L52.6897 13H53.7337L54.0937 11.164H56.4937L56.8657 13ZM54.2857 10.192L55.1137 5.968H55.4617L56.3017 10.192H54.2857ZM67.2608 4.96H66.0368L63.3728 8.332V4.96H62.3288V8.284L59.6888 4.96H58.4408L60.7568 7.804L58.4768 13H59.6408L61.4768 8.656L62.3288 9.676V13H63.3728V9.676L64.2128 8.68L66.0488 13H67.2248L64.9568 7.828L67.2608 4.96Z" fill="white"/>
</svg>
